<svg xmlns="http://www.w3.org/2000/svg" width="47" height="47" fill="none"><path d="M21.542 3.917l14.292 4.465a1.958 1.958 0 011.374 1.87v3.456h3.917a1.959 1.959 0 011.958 1.959v3.916H17.625v-3.916a1.958 1.958 0 011.958-1.959h13.709v-2.017l-11.75-3.674-11.75 3.674v14.5a7.833 7.833 0 003.05 6.206l.37.266 8.33 5.681 7.406-5.052h-9.365a1.958 1.958 0 01-1.958-1.959V23.5h25.458v7.833a1.959 1.959 0 01-1.958 1.959l-6.306.002a11.725 11.725 0 01-2.742 2.604l-10.535 7.185L11.006 35.9a11.75 11.75 0 01-5.131-9.71V10.253A1.958 1.958 0 017.25 8.384l14.292-4.467z" fill="#004192"/></svg>