<svg xmlns="http://www.w3.org/2000/svg" width="60" height="57" fill="none"><path d="M43.026 30.297l-9.721-5.612-2.068 3.581a5.323 5.323 0 01-7.263 1.946 5.323 5.323 0 01-1.946-7.263l4.49-7.777-5.591.098a4.716 4.716 0 00-4.012 2.357l-1.747 3.025H8.346a2.358 2.358 0 00-2.362 2.363l-.001 11.818a2.364 2.364 0 002.363 2.362h8.817l8.736 5.043a4.73 4.73 0 006.456-1.73l1.023.591a2.36 2.36 0 003.228-.865l2.363-4.093.512.296c.85.49 1.93.202 2.42-.649l1.773-3.07c.491-.85.202-1.93-.648-2.42zm10.826 3.062l.002-11.818a2.364 2.364 0 00-2.363-2.362h-8.817l-6.536-3.773a4.762 4.762 0 00-2.526-.632l-2.915.1a2.347 2.347 0 00-1.96 1.18l-4.663 8.077a2.953 2.953 0 105.116 2.954l3.25-5.628 11.767 6.794a4.138 4.138 0 011.514 5.649l-1.053 1.822h6.823a2.366 2.366 0 002.361-2.363z" fill="#004192"/></svg>