<svg xmlns="http://www.w3.org/2000/svg" width="91" height="91" fill="none"><circle cx="45.5" cy="45.5" r="45.5" fill="#004192"/><path d="M28.53 52.7V56H13.05v-2.61l8.34-7.92c.94-.9 1.57-1.68 1.89-2.34.34-.68.51-1.35.51-2.01 0-.98-.33-1.73-.99-2.25-.66-.52-1.63-.78-2.91-.78-2.14 0-3.78.73-4.92 2.19l-2.73-2.1c.82-1.1 1.92-1.95 3.3-2.55 1.4-.62 2.96-.93 4.68-.93 2.28 0 4.1.54 5.46 1.62 1.36 1.08 2.04 2.55 2.04 4.41 0 1.14-.24 2.21-.72 3.21s-1.4 2.14-2.76 3.42l-5.61 5.34h9.9zm20.532-1.47h-3.72V56h-3.78v-4.77h-11.52v-2.7L40.392 35h4.17l-9.75 12.93h6.87V43.7h3.66v4.23h3.72v3.3zm10.083-20.49h3.36L52.605 59h-3.36l9.9-28.26zM78.73 35v2.61L70.57 56H66.4l7.89-17.7h-8.25v3.57h-3.63V35h16.32z" fill="#FFF7F7"/></svg>