<svg xmlns="http://www.w3.org/2000/svg" width="102" height="91" fill="none"><path d="M51 0C38.677 0 28.687 10.026 28.687 22.395c0 9.999 14.583 28.224 20.17 34.839a2.787 2.787 0 004.286 0c5.587-6.615 20.17-24.84 20.17-34.84C73.313 10.027 63.322 0 51 0zm0 29.86c-4.108 0-7.438-3.342-7.438-7.465 0-4.124 3.33-7.465 7.438-7.465s7.438 3.341 7.438 7.465c0 4.123-3.33 7.464-7.438 7.464zM3.563 38.381a5.672 5.672 0 00-2.588 2.092A5.703 5.703 0 000 43.662v44.49c0 2.013 2.024 3.388 3.885 2.642l24.448-11.169V38.199c-1.565-2.84-2.845-5.606-3.763-8.25L3.563 38.381zM51 63.926a8.448 8.448 0 01-6.465-3.015C41.053 56.788 37.35 52.092 34 47.276v32.347l34 11.375v-43.72c-3.35 4.814-7.051 9.512-10.535 13.635A8.453 8.453 0 0151 63.926zm47.115-35.282L73.667 39.813V91l24.77-9.944a5.695 5.695 0 003.563-5.28V31.284c0-2.012-2.024-3.388-3.885-2.641z" fill="#004192"/></svg>