<svg xmlns="http://www.w3.org/2000/svg" width="47" height="47" fill="none"><path fill-rule="evenodd" clip-rule="evenodd" d="M23.5 47C10.52 47 0 36.48 0 23.5S10.52 0 23.5 0 47 10.52 47 23.5 36.48 47 23.5 47zm-8.078-24.62v2.656h2.59v3.83h-2.59v2.505h2.59v5.348h2.92V31.37h5.876v-2.504h-5.875v-3.83h3.685a11.66 11.66 0 003.32-.456c1.021-.304 1.909-.764 2.663-1.385a6.544 6.544 0 001.79-2.332c.437-.936.656-2.036.656-3.3 0-1.264-.206-2.35-.62-3.261-.414-.91-.985-1.664-1.715-2.258-.73-.593-1.606-1.037-2.628-1.328a12.376 12.376 0 00-3.393-.436h-6.678v12.1h-2.591zm9.268 0h-3.757v-9.443h3.758c1.678 0 2.998.367 3.958 1.1.961.733 1.443 1.91 1.443 3.526 0 1.619-.482 2.826-1.443 3.624-.96.796-2.28 1.194-3.958 1.194h-.001z" fill="#004192"/></svg>