<svg xmlns="http://www.w3.org/2000/svg" width="232" height="60" fill="none"><g opacity=".6"><path fill-rule="evenodd" clip-rule="evenodd" d="M43.58 1.55l3.217 3.843c-9.75 4.382-19.55 8.743-28.957 14.032-8.585 4.827-11.082 16.037 4.29 12.691-16.535 6.593-20.75-8.092-8.67-15.908 7.55-4.885 18.175-9.703 30.12-14.658zM16.768 55.175C35.85 46.51 53.743 37.724 56.27 27.379c7.371 7.383-7.935 18.595-37.27 32.175l-2.233-4.38z" fill="#fff"/><path fill-rule="evenodd" clip-rule="evenodd" d="M51.444 10.944c-6.95 2.68-13.72 5.558-20.109 8.928-4.15 2.19-3.952 4.472 1.52 3.486 4.41-.795 8.39-1.85 12.928-2.626 6.831-1.168 10.114 5.2 5.21 10.56C41.145 42.056 24.82 48.534 4.524 55.8L2.29 51.6c17.657-7.407 34.964-13.77 46.296-23.684 4.81-4.209 1.418-6.357-2.568-5.63-4.17.662-8.336 2.327-12.528 3.038-10.434 1.768-12.321-4.214-3.852-9.027 5.678-3.227 12.08-6.163 18.777-8.973l3.03 3.62z" fill="#fff"/><path d="M41.79 0l3.218 3.843c-9.75 4.382-19.55 8.742-28.957 14.032-8.584 4.827-11.081 16.037 4.29 12.691-16.534 6.593-20.75-8.092-8.67-15.909C19.222 9.773 29.847 4.955 41.792 0z" fill="url(#paint0_linear)"/><path d="M14.979 53.624C34.06 44.96 51.955 36.174 54.482 25.83c7.371 7.383-7.935 18.595-37.269 32.175l-2.234-4.38z" fill="url(#paint1_linear)"/><path d="M49.656 9.394c-6.95 2.68-13.72 5.558-20.11 8.928-4.15 2.189-3.951 4.472 1.52 3.485 4.41-.795 8.39-1.85 12.928-2.625 6.832-1.168 10.114 5.2 5.211 10.56-9.85 10.765-26.174 17.243-46.47 24.508L.5 50.05c17.657-7.407 34.964-13.771 46.296-23.685 4.81-4.208 1.419-6.357-2.567-5.63-4.171.663-8.337 2.328-12.529 3.038-10.434 1.77-12.32-4.213-3.851-9.026 5.677-3.227 12.08-6.163 18.776-8.973l3.03 3.62z" fill="url(#paint2_linear)"/><path fill-rule="evenodd" clip-rule="evenodd" d="M76.64 28.996c0 1.92-.575 3.44-1.725 4.557-1.15 1.119-2.759 1.678-4.826 1.678-1.71 0-3.134-.348-4.273-1.044a6.37 6.37 0 01-2.532-2.849l2.342-1.36a6.103 6.103 0 001.71 1.898c.717.528 1.645.791 2.784.791 1.35 0 2.321-.348 2.912-1.044.59-.696.886-1.572.886-2.627 0-.59-.09-1.092-.269-1.503a2.968 2.968 0 00-.775-1.06 5.03 5.03 0 00-1.234-.776 14.797 14.797 0 00-1.615-.617c-1.097-.338-2.03-.691-2.8-1.06-.77-.37-1.398-.797-1.883-1.282a4.431 4.431 0 01-1.061-1.662c-.221-.622-.332-1.355-.332-2.2 0-.886.148-1.698.443-2.437a5.414 5.414 0 011.282-1.914 5.839 5.839 0 012.01-1.25c.78-.296 1.656-.444 2.626-.444 1.625 0 2.933.29 3.925.87.992.581 1.73 1.315 2.215 2.2l-2.247 1.551c-.422-.738-.95-1.27-1.582-1.598-.633-.327-1.446-.49-2.437-.49-1.224 0-2.12.337-2.69 1.012-.57.676-.855 1.509-.855 2.5 0 .57.127 1.056.38 1.457.253.4.601.743 1.044 1.028.443.285.96.538 1.551.76.59.221 1.234.438 1.93.649.95.295 1.752.632 2.406 1.012.654.38 1.176.823 1.567 1.33a4.99 4.99 0 01.854 1.724c.18.644.27 1.377.27 2.2zm90.39 6.013l-2.218-1.187a6.136 6.136 0 01-1.659.95 7.091 7.091 0 01-2.579.459c-1.013 0-1.92-.164-2.722-.49a5.701 5.701 0 01-2.025-1.361 5.954 5.954 0 01-1.266-2.09c-.296-.812-.443-1.703-.443-2.674v-9.241c0-.929.142-1.794.427-2.596a5.693 5.693 0 011.266-2.073 6.056 6.056 0 012.041-1.376c.802-.338 1.709-.507 2.722-.507 1.498 0 2.79.37 3.877 1.108 1.087.738 1.83 1.793 2.231 3.165l-2.532.854c-.211-.78-.622-1.408-1.234-1.883-.612-.475-1.393-.712-2.342-.712-.612 0-1.155.111-1.63.332a3.75 3.75 0 00-1.203.87c-.327.36-.575.782-.743 1.267a4.492 4.492 0 00-.253 1.487v9.463c0 .528.084 1.034.253 1.52a3.638 3.638 0 001.946 2.168c.475.221 1.018.332 1.63.332.57 0 1.087-.1 1.551-.3.464-.201.86-.47 1.187-.808a3.74 3.74 0 00.775-1.202 3.89 3.89 0 00.285-1.463v-3.506h-3.608V23.14h6.266v11.869zm-75.008-6.425c0 1.013-.158 1.926-.475 2.738a6.103 6.103 0 01-1.33 2.09 5.702 5.702 0 01-2.04 1.328c-.792.306-1.662.46-2.612.46-1.16 0-2.152-.19-2.975-.57-.823-.38-1.493-.892-2.01-1.535a6.1 6.1 0 01-1.123-2.232 9.977 9.977 0 01-.348-2.658v-8.83c0-.739.116-1.498.348-2.28a6.175 6.175 0 011.108-2.12c.506-.633 1.17-1.15 1.994-1.55.823-.401 1.825-.602 3.006-.602 1.118 0 2.084.19 2.896.57.813.38 1.483.88 2.01 1.503a6.168 6.168 0 011.17 2.105c.254.78.38 1.572.38 2.373v9.21zm-2.69-9.178c0-.337-.058-.738-.174-1.203a4.081 4.081 0 00-.607-1.329 3.829 3.829 0 00-1.155-1.092c-.49-.306-1.113-.459-1.878-.459-.765 0-1.388.143-1.873.428a3.735 3.735 0 00-1.798 2.389 5.758 5.758 0 00-.175 1.33l.032 8.703c0 .633.069 1.23.206 1.788.137.56.369 1.045.686 1.456.316.412.722.739 1.223.981.496.243 1.097.364 1.794.364.506 0 .991-.09 1.445-.269a3.27 3.27 0 001.176-.775c.328-.338.596-.75.797-1.234.2-.486.3-1.034.3-1.646v-9.432zm6.171 15.603V12.981h2.627v19.465h8.799v2.563H95.503zm20.129-22.028c1.477 0 2.743.27 3.798.807 1.055.538 1.836 1.44 2.342 2.706.316.845.491 1.873.522 3.086.032 1.214.048 2.622.048 4.226 0 1.666-.01 3.101-.032 4.304-.021 1.203-.19 2.236-.506 3.101-.296.739-.665 1.35-1.108 1.836-.443.485-.95.87-1.519 1.155a7.07 7.07 0 01-1.868.617 11.27 11.27 0 01-2.088.19h-5.761V12.981h6.172zm4.051 7.248c0-1.709-.369-2.938-1.108-3.687-.738-.749-1.804-1.124-3.196-1.124h-3.26v17.123h3.26c1.561 0 2.669-.417 3.323-1.25.654-.834.981-1.99.981-3.466v-7.596zm6.33 14.78V12.981h2.658V35.01h-2.658zm18.831-6.013c0 1.92-.575 3.44-1.725 4.557-1.15 1.119-2.758 1.678-4.826 1.678-1.709 0-3.133-.348-4.273-1.044a6.375 6.375 0 01-2.532-2.849l2.342-1.36a6.103 6.103 0 001.709 1.898c.718.528 1.646.791 2.786.791 1.35 0 2.321-.348 2.911-1.044.591-.696.886-1.572.886-2.627 0-.59-.089-1.092-.269-1.503a2.959 2.959 0 00-.775-1.06 5.046 5.046 0 00-1.234-.776 14.922 14.922 0 00-1.614-.617c-1.098-.338-2.031-.691-2.801-1.06-.771-.37-1.398-.797-1.883-1.282a4.429 4.429 0 01-1.061-1.662c-.221-.622-.332-1.355-.332-2.2 0-.886.148-1.698.443-2.437a5.425 5.425 0 011.282-1.914 5.838 5.838 0 012.01-1.25c.78-.296 1.656-.444 2.626-.444 1.625 0 2.933.29 3.925.87.992.581 1.73 1.315 2.215 2.2l-2.247 1.551c-.422-.738-.949-1.27-1.582-1.598-.633-.327-1.445-.49-2.437-.49-1.224 0-2.121.337-2.69 1.012-.57.676-.855 1.509-.855 2.5 0 .57.127 1.056.38 1.457.253.4.601.743 1.044 1.028.443.285.96.538 1.551.76.591.221 1.234.438 1.931.649.949.295 1.751.632 2.405 1.012.654.38 1.176.823 1.567 1.33.39.506.675 1.08.854 1.724.18.644.269 1.377.269 2.2zm35.796 6.013l-3.672-9.684h-3.703v9.684h-2.627V12.981h6.9c1.793 0 3.207.533 4.241 1.599 1.034 1.065 1.551 2.58 1.551 4.541 0 1.393-.311 2.59-.934 3.593-.622 1.002-1.577 1.746-2.864 2.23l3.988 10.065h-2.88zm.031-15.904c0-1.228-.29-2.162-.87-2.795-.58-.638-1.493-.955-2.738-.955h-3.798v7.66h3.862c1.181 0 2.067-.349 2.658-1.05.591-.697.886-1.651.886-2.86zm18.23 9.48c0 1.012-.158 1.925-.474 2.737a6.107 6.107 0 01-1.33 2.09 5.706 5.706 0 01-2.041 1.328c-.791.306-1.662.46-2.611.46-1.161 0-2.152-.19-2.975-.57-.823-.38-1.493-.892-2.01-1.535a6.115 6.115 0 01-1.124-2.232 9.985 9.985 0 01-.348-2.658v-8.83c0-.739.116-1.498.348-2.28a6.205 6.205 0 011.108-2.12c.507-.633 1.171-1.15 1.994-1.55.823-.401 1.825-.602 3.007-.602 1.118 0 2.083.19 2.896.57.812.38 1.482.88 2.009 1.503a6.174 6.174 0 011.172 2.105c.253.78.379 1.572.379 2.373v9.21zm-2.69-9.179c0-.337-.058-.738-.174-1.203a4.08 4.08 0 00-.607-1.329 3.825 3.825 0 00-1.155-1.092c-.49-.306-1.113-.459-1.878-.459-.764 0-1.387.143-1.872.428a3.723 3.723 0 00-1.799 2.39 5.758 5.758 0 00-.174 1.329l.032 8.703c0 .633.068 1.23.205 1.788a3.87 3.87 0 00.686 1.456c.317.412.723.739 1.224.981.496.243 1.097.364 1.793.364.507 0 .992-.09 1.446-.269.458-.18.849-.438 1.176-.775a3.9 3.9 0 00.796-1.234c.201-.486.301-1.034.301-1.646v-9.432zm18.8-6.425v15.635c0 1.013-.159 1.925-.475 2.738a5.938 5.938 0 01-1.329 2.073 5.82 5.82 0 01-2.042 1.313c-.791.306-1.661.46-2.611.46-1.012 0-1.915-.164-2.706-.492a5.905 5.905 0 01-2.025-1.36 5.846 5.846 0 01-1.282-2.09 7.66 7.66 0 01-.443-2.642V12.981h2.627v15.73c0 .528.089 1.029.269 1.504.179.474.432.896.759 1.265.327.37.728.665 1.203.887a3.731 3.731 0 001.598.332c1.119 0 2.031-.353 2.738-1.06.707-.707 1.06-1.683 1.06-2.928v-15.73h2.659zm16.489 6.615c0 .844-.116 1.662-.348 2.453a5.811 5.811 0 01-1.092 2.089c-.496.601-1.145 1.086-1.946 1.456-.802.369-1.773.553-2.912.553h-3.767v8.862h-2.626V12.981h6.266c2.047 0 3.629.544 4.747 1.63 1.119 1.087 1.678 2.749 1.678 4.985zm-2.659-.032c0-1.265-.295-2.268-.886-3.006-.591-.739-1.572-1.108-2.943-1.108h-3.577v8.229h3.608c.739 0 1.351-.116 1.836-.348a3.2 3.2 0 001.171-.918c.295-.38.501-.818.617-1.314a6.716 6.716 0 00.174-1.535zm-.006 30.886c0 .436-.173.79-.522 1.06-.348.272-.771.409-1.263.409-.267 0-.53-.024-.787-.075a1.852 1.852 0 01-.607-.208v-1.133h.246l.022.178a.964.964 0 00.377.65c.214.16.462.24.744.24.257 0 .473-.08.65-.24a.769.769 0 00.263-.588v-.125a.845.845 0 00-.123-.453 1.261 1.261 0 00-.355-.361l-1.344-.96c-.319-.238-.48-.541-.48-.907v-.097c.035-.392.202-.698.502-.918.303-.22.68-.331 1.132-.331.243 0 .479.018.707.051.23.036.397.073.501.113v1.006h-.267l-.045-.176a.798.798 0 00-.303-.488.921.921 0 00-.57-.178.918.918 0 00-.559.178.56.56 0 00-.241.474c0 .133.021.246.063.34a.644.644 0 00.212.25l1.376 1.023c.227.167.398.352.507.553.109.199.164.438.164.714zm-6.54-2.78l-.49.281-.549-.621a1.028 1.028 0 00-.348-.26 1.026 1.026 0 00-.4-.074c-.54 0-.955.204-1.247.613-.258.364-.386.845-.386 1.44 0 .694.198 1.264.594 1.707a1.817 1.817 0 001.724.613c.101-.02.209-.057.323-.11l.498-.236.162.287-1.289.61a1.878 1.878 0 01-.378.037c-.815 0-1.467-.286-1.957-.857-.44-.517-.66-1.145-.66-1.884 0-.67.228-1.247.683-1.735.518-.56 1.216-.842 2.096-.842.238 0 .453.02.646.057.193.037.39.107.593.21l.385.764zm-7.856 4.142h-2.523v-.255l.187-.013c.129 0 .233-.008.315-.026a.404.404 0 00.203-.108.283.283 0 00.078-.104.524.524 0 00.026-.2.658.658 0 000-.126v-3.238a.57.57 0 000-.12.332.332 0 00-.052-.187.25.25 0 00-.152-.104.974.974 0 00-.247-.026h-.304v-.25c.138 0 .262-.006.369-.018.11-.012.252-.04.431-.08a3.99 3.99 0 00.441-.117c.116-.038.265-.102.448-.19v4.33a.641.641 0 010 .125c0 .069.006.128.018.175a.266.266 0 00.09.133.402.402 0 00.176.09c.071.016.153.03.246.04h.25v.27zm-1.302-5.866a.568.568 0 01-.451-.184.643.643 0 01-.163-.439c0-.153.044-.28.136-.38.091-.101.226-.153.404-.153.194 0 .344.06.452.185a.64.64 0 01.164.438c0 .153-.046.28-.137.38-.091.101-.226.153-.405.153zm-4.541 5.536l-1.178.456h-.134c-.112 0-.21-.01-.292-.034a1.36 1.36 0 01-.284-.122 1.02 1.02 0 01-.475-.59c-.06-.189-.088-.46-.088-.815V47.44h-.8v-.453h.8V45.92l.622-.56h.283v1.627h1.53v.275l-.406.178h-1.124v2.86c0 .231.021.418.063.559.041.14.135.257.277.35a.804.804 0 00.452.141c.083 0 .171-.012.261-.032.092-.02.157-.032.196-.037l.223-.056.074.257zm-6.717-1.031c0 .435-.173.789-.522 1.06-.348.271-.77.407-1.263.407-.267 0-.53-.023-.787-.074a1.852 1.852 0 01-.607-.208v-1.133h.246l.022.178a.957.957 0 00.378.65c.213.16.46.24.743.24a.93.93 0 00.65-.24.77.77 0 00.264-.588v-.125a.846.846 0 00-.124-.453 1.249 1.249 0 00-.355-.361l-1.344-.96c-.319-.238-.48-.541-.48-.907v-.097c.036-.392.203-.698.503-.918.302-.22.679-.331 1.132-.331.242 0 .478.018.706.051.23.036.397.073.501.113v1.006h-.267l-.045-.176a.798.798 0 00-.303-.488.921.921 0 00-.57-.178.918.918 0 00-.559.178.56.56 0 00-.24.474.85.85 0 00.062.34.653.653 0 00.212.25l1.376 1.023c.228.167.398.352.507.553.11.199.164.438.164.714zm-6.622 1.361h-2.524v-.255l.188-.013c.128 0 .233-.008.315-.026a.397.397 0 00.202-.108.273.273 0 00.078-.104.524.524 0 00.026-.2 1.313 1.313 0 000-.126v-3.238a1.136 1.136 0 000-.12.34.34 0 00-.051-.187.252.252 0 00-.153-.104.964.964 0 00-.247-.026h-.303v-.25c.138 0 .261-.006.369-.018a4.21 4.21 0 00.43-.08c.179-.038.325-.076.442-.117.116-.038.265-.102.448-.19v4.33a.641.641 0 010 .125c0 .069.006.128.018.175a.27.27 0 00.089.133.404.404 0 00.178.09c.07.016.152.03.245.04h.25v.27zm-1.302-5.866c-.193 0-.344-.061-.451-.184a.644.644 0 01-.164-.439c0-.153.045-.28.136-.38.092-.101.227-.153.405-.153.193 0 .344.06.452.185.108.123.163.27.163.438 0 .153-.045.28-.136.38-.092.101-.227.153-.405.153zm-5.642 6.759a.814.814 0 00-.347-.578 1.666 1.666 0 00-.69-.266l-1.26-.215-.141.08c-.207.128-.36.252-.459.37a1.1 1.1 0 00-.23.532.842.842 0 00-.014.185c0 .345.153.638.456.876.304.24.659.358 1.063.358.43 0 .798-.093 1.105-.28.351-.219.526-.517.526-.898 0-.069-.004-.124-.008-.164h-.001zm-.695-4.215c0-.41-.073-.76-.221-1.052-.178-.346-.434-.52-.764-.52-.302 0-.538.147-.711.438-.153.255-.23.568-.23.939a1.836 1.836 0 00.016.236c.04.35.143.648.311.895.193.28.43.422.711.422h.09a.756.756 0 00.652-.476c.098-.217.147-.51.147-.882h-.001zm1.819-1.71l-.252.437h-1.057c.146.179.253.355.322.534.069.176.103.377.103.598 0 .479-.172.883-.517 1.213-.326.316-.74.5-1.243.547a.863.863 0 01-.118.008h-.333l-.17-.02-.162.164a.333.333 0 00-.105.299c.014.078.065.14.148.186.06.03.149.054.267.074l1.547.289c.317.06.567.153.755.28.221.155.361.364.421.632.04.18.059.345.059.488 0 .587-.257 1.058-.769 1.407-.459.312-1.002.468-1.629.468-.622 0-1.156-.15-1.607-.452-.502-.337-.754-.79-.754-1.364 0-.085.006-.157.014-.22a.228.228 0 01.071-.14.597.597 0 01.107-.078l1.023-.578a.787.787 0 01-.201-.023.6.6 0 01-.178-.088.722.722 0 01-.219-.209.503.503 0 01-.077-.28v-.156l.971-.816-.148-.082c-.331-.173-.583-.384-.757-.632a1.538 1.538 0 01-.26-.9c0-.483.185-.888.553-1.217a1.91 1.91 0 011.315-.491c.128 0 .284.004.467.008.181.004.379.052.592.146l.927-.035c.176 0 .37-.025.582-.073l.238-.066.074.14v.002zm-9.168 2.424a2.8 2.8 0 00-.43-1.54c-.313-.483-.692-.726-1.137-.726-.61 0-1.058.274-1.345.822-.223.424-.334.964-.334 1.615 0 .558.141 1.053.424 1.489.311.478.705.717 1.179.717.532 0 .945-.237 1.242-.71.268-.43.401-.985.401-1.667zm1.041-.002c0 .74-.259 1.378-.774 1.914a2.552 2.552 0 01-1.91.803 2.594 2.594 0 01-1.83-.712c-.523-.488-.785-1.1-.785-1.835 0-.755.249-1.4.748-1.933.519-.553 1.166-.828 1.942-.828.722 0 1.337.247 1.846.74.509.494.763 1.111.763 1.85zm-8.864 2.61h-2.524v-.252l.186-.022.298-.029a.418.418 0 00.217-.101.3.3 0 00.089-.144.857.857 0 00.02-.2.754.754 0 000-.096v-5.61c0-.04-.002-.086-.004-.141a.337.337 0 00-.068-.17.28.28 0 00-.164-.116 1.076 1.076 0 00-.27-.025h-.304v-.251c.168 0 .301-.004.401-.012.098-.006.233-.026.403-.055.171-.029.308-.054.413-.075.104-.023.279-.076.526-.158v6.606a.555.555 0 010 .117c0 .069.006.128.018.178.014.05.042.095.09.136a.35.35 0 00.151.086c.053.015.144.03.271.045l.251.036v.253zm-11.994-4.317l-.449.312-.5-.244a.524.524 0 00-.229-.052.787.787 0 00-.331.092.471.471 0 00-.254.292 1.835 1.835 0 00-.062.533v2.534c0 .117.004.205.011.262.006.057.037.11.092.163a.45.45 0 00.183.108.9.9 0 00.249.029l.483.036v.252h-2.762v-.264l.179-.024.297-.03a.464.464 0 00.223-.099.3.3 0 00.091-.144.762.762 0 00.02-.2v-3.303a.913.913 0 00-.012-.178.494.494 0 00-.067-.14c-.037-.059-.103-.095-.199-.107a2.018 2.018 0 00-.234-.018h-.298v-.26c.291 0 .577-.032.858-.098a3.05 3.05 0 00.886-.335v.937l.687-.706a.906.906 0 01.218-.169.478.478 0 01.227-.062c.024 0 .061.006.109.02.048.01.085.03.109.054a.619.619 0 01.089.127l.386.684zm-7.932 1.709c0-.577-.143-1.09-.431-1.54-.312-.483-.691-.726-1.136-.726-.61 0-1.059.274-1.346.822-.223.424-.334.964-.334 1.615 0 .558.142 1.053.424 1.489.312.478.705.717 1.18.717.532 0 .944-.237 1.241-.71.268-.43.402-.985.402-1.667zm1.04-.002c0 .74-.258 1.378-.774 1.914a2.552 2.552 0 01-1.909.803 2.594 2.594 0 01-1.83-.712c-.523-.488-.785-1.1-.785-1.835 0-.755.249-1.4.748-1.933.519-.553 1.166-.828 1.941-.828a2.56 2.56 0 011.847.74c.509.494.762 1.111.762 1.85zm-8.172-4.342a.255.255 0 01-.043.111l-.147.222a.152.152 0 01-.089.06.146.146 0 01-.059 0 .37.37 0 00-.096-.046l-.598-.252a.56.56 0 00-.102-.037.63.63 0 00-.185-.029.393.393 0 00-.236.074.341.341 0 00-.137.19 1.01 1.01 0 00-.033.278v1.565h1.387l.022.223-.422.23h-.987v3.513c0 .102.006.188.018.252a.336.336 0 00.108.176c.102.089.245.134.427.134l.455.036v.252h-2.732v-.264l.188-.024.3-.03a.422.422 0 00.305-.206.526.526 0 00.026-.2.641.641 0 010-.125V47.45h-.708v-.453h.708v-.873c0-.188.046-.384.14-.587.075-.157.196-.316.362-.473.119-.11.23-.194.333-.259l.539-.319c.08-.044.166-.08.26-.108a.843.843 0 01.236-.04c.108 0 .204.032.287.096l.394.323c.048.04.076.074.08.104h-.001zm-13.287 5.59c0 .436-.174.79-.522 1.06-.348.272-.771.409-1.264.409-.266 0-.529-.024-.786-.075a1.844 1.844 0 01-.607-.208v-1.133h.246l.022.178a.956.956 0 00.377.65c.214.16.461.24.744.24.256 0 .473-.08.65-.24a.769.769 0 00.263-.588v-.125a.837.837 0 00-.124-.453 1.224 1.224 0 00-.355-.361l-1.343-.96c-.319-.238-.48-.541-.48-.907v-.097c.035-.392.202-.698.502-.918.302-.22.679-.331 1.132-.331.242 0 .479.018.707.051.23.036.396.073.5.113v1.006h-.266l-.045-.176a.798.798 0 00-.303-.488.925.925 0 00-.57-.178.918.918 0 00-.559.178.558.558 0 00-.241.474c0 .133.021.246.063.34a.644.644 0 00.212.25l1.376 1.023c.228.167.398.352.507.553.11.199.164.438.164.714zm-6.529 1.362h-2.495v-.255l.185-.013c.224 0 .391-.055.499-.163a.258.258 0 00.07-.104.545.545 0 00.026-.193v-2.419c0-.445-.037-.755-.111-.933-.123-.29-.377-.47-.761-.54a2.24 2.24 0 00-.295-.022c-.43 0-.772.174-1.03.52-.231.312-.346.69-.346 1.136v2.271c0 .071.006.128.019.172a.309.309 0 00.085.133c.1.095.245.142.432.142h.254v.27h-2.533v-.256l.187-.014c.115 0 .216-.011.304-.033a.466.466 0 00.207-.103.295.295 0 00.092-.144.873.873 0 00.02-.2v-3.322a.91.91 0 00-.012-.178.513.513 0 00-.063-.136.211.211 0 00-.152-.103 1.714 1.714 0 00-.286-.02h-.297v-.25c.271 0 .555-.036.857-.106a3.24 3.24 0 00.447-.13 4.6 4.6 0 00.439-.207v.87l.228-.2c.256-.225.525-.395.813-.505a2.459 2.459 0 011.519-.083c.332.088.575.288.727.6.127.262.191.609.191 1.039v2.766c0 .079.006.142.018.19a.314.314 0 00.089.136.395.395 0 00.212.09c.097.014.172.024.225.029h.237v.27l-.001-.002zm-18.085 0h-2.525v-.255l.188-.013c.129 0 .233-.008.315-.026a.393.393 0 00.202-.108.275.275 0 00.079-.104.524.524 0 00.026-.2 1.313 1.313 0 000-.126v-3.238a1.136 1.136 0 000-.12.332.332 0 00-.052-.187.25.25 0 00-.152-.104.97.97 0 00-.247-.026h-.303v-.25c.137 0 .261-.006.368-.018a4.22 4.22 0 00.431-.08c.178-.038.324-.076.442-.117.115-.038.264-.102.447-.19v4.33a.641.641 0 010 .125c0 .069.006.128.018.175a.28.28 0 00.09.133.406.406 0 00.177.09c.07.016.152.03.245.04h.251v.27zm-1.303-5.866c-.192 0-.343-.061-.45-.184a.639.639 0 01-.164-.439c0-.153.044-.28.136-.38.092-.101.227-.153.404-.153.193 0 .344.06.452.185a.64.64 0 01.164.438c0 .153-.046.28-.137.38-.092.101-.226.153-.405.153zm-4.541 5.536l-1.179.456h-.133c-.112 0-.21-.01-.292-.034a1.349 1.349 0 01-.284-.122 1.024 1.024 0 01-.475-.59c-.06-.189-.088-.46-.088-.815V47.44h-.8v-.453h.8V45.92l.623-.56h.282v1.627h1.53v.275l-.406.178h-1.124v2.86c0 .231.021.418.062.559a.64.64 0 00.278.35.804.804 0 00.452.141c.083 0 .171-.012.261-.032a2.06 2.06 0 01.196-.037l.224-.056.073.257zm-6.548-.018l-1.443.474a1.047 1.047 0 01-.124-.183 1.171 1.171 0 01-.107-.5.408.408 0 010-.097l-.932.538a1.738 1.738 0 01-.856.242c-.202 0-.424-.042-.664-.125a1.148 1.148 0 01-.668-.586c-.137-.276-.204-.622-.204-1.036v-2.516a.438.438 0 00-.052-.24.252.252 0 00-.155-.105 1.1 1.1 0 00-.267-.026h-.326v-.25c.272 0 .56-.036.87-.106a3.65 3.65 0 00.418-.135c.11-.046.26-.116.446-.212v3.25c0 .441.037.753.11.936.125.302.379.482.764.54.088.015.171.023.25.023.42 0 .742-.175.97-.526.197-.305.295-.684.295-1.134v-1.94c0-.074-.004-.131-.008-.175a.344.344 0 00-.066-.151.237.237 0 00-.173-.104 2.035 2.035 0 00-.257-.014h-.295v-.25c.197 0 .37-.012.52-.037.02-.004.12-.03.304-.07.182-.043.335-.088.457-.134a3.75 3.75 0 00.434-.212v4.139a.97.97 0 00.05.329.29.29 0 00.195.181c.04.014.077.023.113.023a.48.48 0 00.13-.018l.1-.034.112-.035.06.277zm-9.257.349h-2.524v-.252l.186-.023.297-.029a.421.421 0 00.219-.1.304.304 0 00.088-.145.766.766 0 00.02-.2.378.378 0 000-.095v-5.61c0-.04-.002-.087-.004-.142a.32.32 0 00-.067-.17.28.28 0 00-.164-.115 1.078 1.078 0 00-.27-.026h-.305v-.25a4.107 4.107 0 00.804-.068 13.3 13.3 0 00.413-.075c.105-.023.28-.075.527-.157v6.605a.376.376 0 010 .117c0 .069.006.128.017.178a.26.26 0 00.09.137c.047.043.097.07.151.085.053.016.145.03.272.045l.25.037v.252zm-6.829-2.61a2.79 2.79 0 00-.431-1.539c-.313-.483-.692-.726-1.136-.726-.61 0-1.058.275-1.345.822-.224.424-.335.964-.335 1.616 0 .557.141 1.053.424 1.488.311.478.705.717 1.18.717.531 0 .944-.237 1.242-.71.267-.43.401-.985.401-1.667zm1.04-.001c0 .74-.258 1.378-.774 1.914a2.551 2.551 0 01-1.91.803c-.71 0-1.32-.238-1.829-.711-.524-.488-.785-1.1-.785-1.835 0-.755.249-1.4.748-1.934.519-.553 1.165-.828 1.94-.828.723 0 1.339.247 1.847.74.51.494.763 1.111.763 1.85zm-8.764 1.25c0 .434-.173.788-.522 1.059-.348.271-.77.408-1.263.408a4.1 4.1 0 01-.787-.075 1.849 1.849 0 01-.607-.208v-1.133h.246l.022.178a.96.96 0 00.378.65c.213.16.46.24.743.24.257 0 .473-.08.65-.24a.77.77 0 00.264-.588v-.125a.845.845 0 00-.124-.452 1.237 1.237 0 00-.355-.362l-1.344-.96c-.32-.238-.48-.541-.48-.907v-.097a1.22 1.22 0 01.503-.918c.302-.22.678-.33 1.132-.33.242 0 .478.017.706.05.23.036.397.073.5.113v1.007h-.266l-.044-.176a.8.8 0 00-.304-.489.922.922 0 00-.57-.178.915.915 0 00-.558.178.558.558 0 00-.242.474c0 .133.022.246.063.34a.642.642 0 00.212.25l1.376 1.023c.228.168.398.352.507.553.11.199.164.438.164.714zm44.012-1.248c0-.577-.143-1.09-.431-1.54-.313-.483-.691-.726-1.136-.726-.61 0-1.058.275-1.345.822-.224.424-.335.964-.335 1.616 0 .557.141 1.053.424 1.488.312.478.705.717 1.18.717.532 0 .944-.237 1.242-.71.268-.43.401-.985.401-1.667zm1.04-.002c0 .74-.258 1.378-.774 1.914a2.55 2.55 0 01-1.909.803 2.594 2.594 0 01-1.83-.711c-.523-.488-.785-1.1-.785-1.835 0-.755.249-1.4.748-1.934.519-.553 1.166-.828 1.941-.828.723 0 1.338.247 1.846.74.51.494.763 1.111.763 1.85z" fill="#fff"/></g><defs><linearGradient id="paint0_linear" x1="-493.631" y1="-1329.58" x2="-464.92" y2="-1344.21" gradientUnits="userSpaceOnUse"><stop stop-color="#fff"/><stop offset="1" stop-color="#fff"/></linearGradient><linearGradient id="paint1_linear" x1="-563.864" y1="-1364.29" x2="-536.88" y2="-1381.81" gradientUnits="userSpaceOnUse"><stop stop-color="#fff"/><stop offset="1" stop-color="#fff"/></linearGradient><linearGradient id="paint2_linear" x1="-472.341" y1="-1325.41" x2="-428.771" y2="-1346.66" gradientUnits="userSpaceOnUse"><stop stop-color="#fff"/><stop offset="1" stop-color="#fff"/></linearGradient></defs></svg>