<svg xmlns="http://www.w3.org/2000/svg" width="70" height="70" fill="none"><circle cx="35" cy="35" r="34.5" fill="#004192" stroke="#08FFC8"/><path d="M41.706 42.932a.4.4 0 00-.329-.166h-2.233a.405.405 0 00-.329.64l3.73 5.152c.161.222.49.222.651 0l5.771-7.972a.405.405 0 00-.328-.641H46.4a.4.4 0 00-.328.166l-3.21 4.43-1.156-1.609zm2.188-18.327v-2.422a.405.405 0 00-.405-.403H24.085a.405.405 0 00-.404.403v2.422c0 .223.182.404.404.404H43.49a.405.405 0 00.405-.404zm-19.809 4.44a.405.405 0 00-.404.404v2.423c0 .222.182.403.404.403h9.298a.405.405 0 00.404-.403V29.45a.405.405 0 00-.404-.404h-9.298zm9.298 23.111H19.638V16.633h28.298v14.936c0 .222.182.404.404.404h2.83a.405.405 0 00.404-.404V14.615c0-.893-.722-1.615-1.617-1.615h-32.34c-.894 0-1.617.722-1.617 1.615v39.56c0 .892.723 1.614 1.617 1.614h15.766a.405.405 0 00.404-.404V52.56a.405.405 0 00-.404-.404zm20.344-16.187l-9.702-3.366a.397.397 0 00-.131-.02.378.378 0 00-.132.02L34.06 35.97a.403.403 0 00-.273.378v12.67a.39.39 0 00.157.318l9.702 7.58a.41.41 0 00.248.085.41.41 0 00.247-.086l9.702-7.579a.406.406 0 00.157-.318v-12.67a.402.402 0 00-.273-.378zM50.867 47.7l-6.973 5.445L36.92 47.7v-9.42l6.974-2.422 6.973 2.422v9.42z" fill="#08FFC8" fill-opacity=".6"/></svg>