<svg xmlns="http://www.w3.org/2000/svg" width="187" height="48" fill="none"><path fill-rule="evenodd" clip-rule="evenodd" d="M34.722 1.25l2.593 3.097c-7.86 3.532-15.758 7.046-23.34 11.31-6.919 3.89-8.931 12.925 3.458 10.228C4.107 31.2.71 19.363 10.446 13.063 16.53 9.126 25.094 5.243 34.722 1.25zM13.111 44.47c15.38-6.984 29.802-14.065 31.84-22.403C50.89 28.018 38.555 37.055 14.912 48l-1.8-3.53z" fill="#004192"/><path fill-rule="evenodd" clip-rule="evenodd" d="M41.06 8.82c-5.601 2.16-11.058 4.48-16.207 7.196-3.346 1.765-3.186 3.605 1.224 2.81 3.554-.64 6.762-1.49 10.42-2.116 5.507-.942 8.152 4.19 4.2 8.51-7.938 8.678-21.096 13.898-37.455 19.755l-1.8-3.386c14.231-5.97 28.18-11.1 37.314-19.09 3.877-3.391 1.143-5.123-2.07-4.538-3.361.535-6.719 1.877-10.097 2.45-8.41 1.425-9.93-3.396-3.105-7.276 4.576-2.6 9.737-4.967 15.134-7.232l2.442 2.918z" fill="#004192"/><path d="M33.28 0l2.593 3.097c-7.859 3.532-15.757 7.047-23.339 11.31-6.919 3.89-8.931 12.926 3.458 10.229C2.665 29.95-.733 18.114 9.004 11.814 15.09 7.877 23.653 3.994 33.28 0z" fill="url(#paint0_linear)"/><path d="M11.67 43.221c15.38-6.984 29.802-14.065 31.84-22.403 5.94 5.95-6.397 14.987-30.04 25.933l-1.8-3.53z" fill="url(#paint1_linear)"/><path d="M39.619 7.571c-5.602 2.16-11.058 4.48-16.208 7.196-3.345 1.765-3.185 3.604 1.225 2.81 3.554-.641 6.762-1.491 10.42-2.117 5.506-.941 8.152 4.191 4.2 8.511C31.317 32.648 18.16 37.869 1.8 43.725L0 40.34c14.232-5.97 28.18-11.098 37.314-19.089 3.877-3.392 1.144-5.123-2.07-4.538-3.36.534-6.718 1.877-10.097 2.45-8.41 1.425-9.93-3.397-3.104-7.276 4.576-2.601 9.736-4.968 15.133-7.232L39.62 7.57z" fill="url(#paint2_linear)"/><path fill-rule="evenodd" clip-rule="evenodd" d="M61.368 23.37c0 1.548-.463 2.772-1.39 3.674-.927.901-2.224 1.352-3.89 1.352-1.377 0-2.526-.28-3.444-.842a5.133 5.133 0 01-2.04-2.296l1.887-1.097c.34.595.8 1.106 1.378 1.53.578.426 1.326.639 2.244.639 1.089 0 1.871-.281 2.347-.842.476-.561.715-1.267.715-2.118 0-.476-.073-.88-.217-1.211a2.391 2.391 0 00-.625-.855 4.057 4.057 0 00-.995-.625 11.95 11.95 0 00-1.301-.497 16.505 16.505 0 01-2.258-.855c-.62-.297-1.126-.642-1.517-1.033a3.57 3.57 0 01-.855-1.339c-.178-.502-.268-1.093-.268-1.773 0-.714.12-1.369.357-1.964a4.364 4.364 0 011.033-1.543c.451-.434.99-.77 1.62-1.008.63-.238 1.335-.357 2.118-.357 1.309 0 2.363.233 3.163.701.799.468 1.394 1.059 1.785 1.773l-1.81 1.25c-.341-.595-.766-1.025-1.276-1.288-.51-.264-1.165-.396-1.965-.396-.986 0-1.709.273-2.168.817-.459.544-.689 1.216-.689 2.015 0 .46.102.85.307 1.173.204.323.484.6.841.83.358.23.774.433 1.25.612.477.178.995.353 1.556.523.766.238 1.412.51 1.939.816.527.306.948.663 1.263 1.071.314.409.544.872.688 1.39.145.52.217 1.11.217 1.773zm72.854 4.847l-1.788-.957a4.95 4.95 0 01-1.337.766c-.637.246-1.33.37-2.079.37-.816 0-1.547-.132-2.193-.396a4.597 4.597 0 01-1.633-1.096 4.809 4.809 0 01-1.02-1.684 6.267 6.267 0 01-.358-2.156v-7.448c0-.749.115-1.446.345-2.092a4.6 4.6 0 011.02-1.67 4.883 4.883 0 011.646-1.11c.646-.273 1.377-.409 2.193-.409 1.208 0 2.249.298 3.125.893.876.595 1.475 1.446 1.799 2.551l-2.041.689a2.784 2.784 0 00-.995-1.518c-.493-.383-1.122-.574-1.888-.574-.493 0-.931.09-1.313.268a3.028 3.028 0 00-.97.701c-.263.29-.463.63-.599 1.02a3.632 3.632 0 00-.204 1.2v7.627c0 .425.068.833.204 1.224a2.936 2.936 0 001.569 1.747c.382.18.82.268 1.313.268.46 0 .876-.08 1.25-.242a2.94 2.94 0 00.957-.65 3.118 3.118 0 00.854-2.148v-2.826h-2.908V18.65h5.051v9.566zM73.766 23.04c0 .816-.128 1.552-.383 2.206a4.918 4.918 0 01-1.071 1.684A4.594 4.594 0 0170.666 28a5.776 5.776 0 01-2.104.37c-.936 0-1.735-.153-2.398-.459a4.406 4.406 0 01-1.62-1.237 4.918 4.918 0 01-.905-1.799 8.044 8.044 0 01-.28-2.142v-7.117c0-.595.093-1.208.28-1.837.187-.63.484-1.199.892-1.709.408-.51.944-.927 1.608-1.25.663-.323 1.47-.485 2.423-.485.901 0 1.68.153 2.334.46.655.306 1.195.71 1.62 1.211a4.97 4.97 0 01.944 1.697c.204.629.306 1.267.306 1.913v7.423zm-2.169-7.398a4.07 4.07 0 00-.14-.97 3.29 3.29 0 00-.489-1.07c-.23-.34-.54-.634-.93-.88-.396-.247-.898-.37-1.514-.37-.617 0-1.118.114-1.51.344a3 3 0 00-.948.842 2.998 2.998 0 00-.501 1.084c-.094.39-.14.748-.14 1.071l.025 7.015c0 .51.055.99.166 1.441.11.451.297.842.552 1.174a2.7 2.7 0 00.987.79c.4.196.884.294 1.445.294.408 0 .8-.072 1.165-.217.37-.145.684-.353.948-.625.264-.272.48-.604.642-.995.162-.39.242-.833.242-1.326V15.64zm4.975 12.576V10.463h2.117V26.15h7.092v2.066h-9.21zm16.224-17.754c1.19 0 2.21.217 3.06.65.85.434 1.48 1.161 1.888 2.181.255.68.396 1.51.421 2.487.026.978.038 2.114.038 3.406 0 1.343-.008 2.5-.025 3.47-.017.969-.153 1.802-.408 2.499-.238.595-.536 1.088-.893 1.48a4.179 4.179 0 01-1.224.93c-.46.23-.961.396-1.506.498a9.102 9.102 0 01-1.683.153H87.82V10.463h4.975zm3.265 5.841c0-1.377-.298-2.368-.893-2.971-.596-.604-1.454-.906-2.577-.906h-2.627v13.8h2.627c1.259 0 2.152-.335 2.679-1.007.527-.672.79-1.603.79-2.793v-6.123zm5.101 11.913V10.463h2.143v17.754h-2.143zm15.178-4.847c0 1.548-.463 2.772-1.39 3.674-.927.901-2.223 1.352-3.89 1.352-1.378 0-2.526-.28-3.444-.842a5.133 5.133 0 01-2.04-2.296l1.887-1.097c.34.595.799 1.106 1.378 1.53.578.426 1.326.639 2.244.639 1.089 0 1.871-.281 2.347-.842.476-.561.715-1.267.715-2.118 0-.476-.073-.88-.217-1.211a2.399 2.399 0 00-.625-.855 4.062 4.062 0 00-.995-.625 11.95 11.95 0 00-1.301-.497 16.548 16.548 0 01-2.258-.855c-.62-.297-1.126-.642-1.517-1.033a3.566 3.566 0 01-.855-1.339c-.179-.502-.268-1.093-.268-1.773 0-.714.119-1.369.357-1.964a4.372 4.372 0 011.033-1.543c.451-.434.991-.77 1.62-1.008.629-.238 1.335-.357 2.117-.357 1.31 0 2.364.233 3.164.701.799.468 1.394 1.059 1.785 1.773l-1.811 1.25c-.34-.595-.765-1.025-1.275-1.288-.51-.264-1.165-.396-1.965-.396-.986 0-1.709.273-2.168.817-.459.544-.689 1.216-.689 2.015 0 .46.102.85.307 1.173.204.323.484.6.841.83.357.23.774.433 1.25.612.477.178.995.353 1.556.523.766.238 1.412.51 1.939.816.527.306.948.663 1.263 1.071.314.409.544.872.689 1.39a6.64 6.64 0 01.216 1.773zm28.851 4.847l-2.959-7.806h-2.985v7.806h-2.117V10.463h5.561c1.446 0 2.585.43 3.418 1.288.834.859 1.25 2.08 1.25 3.66 0 1.123-.251 2.088-.752 2.896-.502.808-1.271 1.407-2.309 1.798l3.214 8.112h-2.321zm.026-12.818c0-.99-.234-1.743-.702-2.253-.468-.515-1.203-.77-2.206-.77h-3.062v6.173h3.112c.953 0 1.667-.28 2.143-.846.476-.561.715-1.33.715-2.304zm14.693 7.64c0 .816-.128 1.552-.383 2.206a4.919 4.919 0 01-1.071 1.684A4.594 4.594 0 01156.81 28a5.784 5.784 0 01-2.104.37c-.935 0-1.735-.153-2.398-.459a4.412 4.412 0 01-1.62-1.237 4.91 4.91 0 01-.905-1.799 8.048 8.048 0 01-.281-2.142v-7.117c0-.595.094-1.208.281-1.837.187-.63.484-1.199.892-1.709.409-.51.944-.927 1.608-1.25.663-.323 1.471-.485 2.423-.485.901 0 1.679.153 2.334.46.655.306 1.195.71 1.62 1.211a4.97 4.97 0 01.944 1.697c.204.629.306 1.267.306 1.913v7.423zm-2.169-7.398a4.07 4.07 0 00-.14-.97 3.273 3.273 0 00-.489-1.07 3.084 3.084 0 00-.931-.88c-.395-.247-.897-.37-1.513-.37-.617 0-1.119.114-1.51.344a3 3 0 00-1.449 1.926 4.617 4.617 0 00-.141 1.071l.026 7.015c0 .51.055.99.166 1.441.11.451.297.842.552 1.174a2.7 2.7 0 00.987.79c.399.196.884.294 1.445.294.408 0 .799-.072 1.165-.217.37-.145.685-.353.948-.625a3.12 3.12 0 00.642-.995 3.44 3.44 0 00.242-1.326V15.64zm15.153-5.178v12.601c0 .817-.128 1.552-.383 2.207a4.785 4.785 0 01-1.071 1.67 4.687 4.687 0 01-1.645 1.06c-.638.246-1.34.37-2.105.37-.816 0-1.543-.133-2.181-.396a4.763 4.763 0 01-1.633-1.097 4.72 4.72 0 01-1.033-1.684 6.187 6.187 0 01-.357-2.13V10.463h2.117V23.14c0 .425.073.829.217 1.212.145.382.349.722.612 1.02a2.95 2.95 0 002.258.982c.901 0 1.637-.285 2.206-.855.57-.57.855-1.356.855-2.36V10.464h2.143zm13.29 5.331c0 .68-.094 1.34-.281 1.977a4.681 4.681 0 01-.88 1.684c-.399.485-.922.876-1.568 1.173-.647.298-1.429.447-2.347.447h-3.036v7.142h-2.117V10.463h5.051c1.649 0 2.925.438 3.826 1.314.901.875 1.352 2.215 1.352 4.017zm-2.143-.025c0-1.02-.238-1.829-.714-2.424s-1.267-.892-2.372-.892h-2.883v6.632h2.908c.595 0 1.089-.094 1.48-.28a2.59 2.59 0 00.943-.74c.239-.306.404-.66.498-1.06.094-.399.14-.811.14-1.236z" fill="#004192"/><path fill-rule="evenodd" clip-rule="evenodd" d="M184.036 40.663c0 .35-.139.636-.42.854-.281.22-.622.329-1.019.329a3.34 3.34 0 01-.634-.06 1.492 1.492 0 01-.489-.168v-.913h.198l.018.143a.771.771 0 00.304.524.97.97 0 00.599.194.75.75 0 00.524-.194.617.617 0 00.213-.474v-.1a.682.682 0 00-.1-.365 1.005 1.005 0 00-.286-.291l-1.083-.774c-.258-.192-.387-.436-.387-.732v-.077a.981.981 0 01.405-.74c.243-.178.547-.267.912-.267.196 0 .386.014.57.041.185.03.319.06.403.091v.811h-.214l-.037-.142a.64.64 0 00-.244-.393.745.745 0 00-.46-.144.738.738 0 00-.45.144.449.449 0 00-.194.382c0 .107.017.198.05.274a.526.526 0 00.171.202l1.109.824c.184.135.321.283.409.445.088.16.132.353.132.576zm-5.271-2.241l-.395.226-.443-.5a.828.828 0 00-.28-.21.83.83 0 00-.323-.06c-.435 0-.77.165-1.005.495-.207.293-.311.68-.311 1.16 0 .56.16 1.019.479 1.376a1.465 1.465 0 001.39.494c.081-.016.168-.046.26-.09l.401-.189.131.232-1.039.491a1.547 1.547 0 01-.304.03c-.658 0-1.183-.23-1.578-.691-.354-.417-.532-.923-.532-1.518 0-.54.184-1.005.55-1.399.418-.451.981-.678 1.69-.678.192 0 .365.016.521.045.155.03.314.087.477.17l.311.616zm-6.332 3.338h-2.034v-.205l.151-.011c.104 0 .188-.007.254-.021a.316.316 0 00.163-.087.225.225 0 00.064-.084.437.437 0 00.02-.16.427.427 0 000-.103v-2.61a.37.37 0 000-.095.27.27 0 00-.041-.152.202.202 0 00-.123-.084.786.786 0 00-.199-.02h-.245v-.203c.111 0 .211-.004.298-.014a3.44 3.44 0 00.347-.063c.143-.032.261-.062.356-.095.092-.03.213-.083.36-.154v3.49a.417.417 0 010 .101c0 .056.005.103.015.141a.213.213 0 00.072.107.326.326 0 00.142.073c.057.013.124.024.198.032h.202v.218zm-1.049-4.728a.459.459 0 01-.364-.149.517.517 0 01-.131-.353c0-.123.036-.225.109-.307.074-.081.183-.123.326-.123.156 0 .277.05.364.15a.513.513 0 01.132.352.438.438 0 01-.11.307c-.074.081-.182.123-.326.123zm-3.66 4.462l-.95.367h-.108a.859.859 0 01-.235-.027 1.093 1.093 0 01-.229-.098.824.824 0 01-.383-.476c-.048-.152-.071-.37-.071-.657v-2.368h-.645v-.364h.645v-.861l.501-.451h.229v1.312h1.233v.22l-.328.144h-.905v2.306c0 .187.017.337.05.45a.513.513 0 00.224.283.647.647 0 00.364.114.98.98 0 00.21-.026c.074-.017.127-.026.158-.03l.18-.045.06.207zm-5.414-.831c0 .35-.14.636-.421.854-.281.22-.621.329-1.018.329a3.34 3.34 0 01-.634-.06 1.492 1.492 0 01-.489-.168v-.913h.198l.018.143a.771.771 0 00.304.524c.172.13.371.194.599.194a.75.75 0 00.524-.194.62.62 0 00.213-.474v-.1a.682.682 0 00-.1-.365 1.005 1.005 0 00-.286-.291l-1.083-.774c-.258-.192-.387-.436-.387-.732v-.077a.981.981 0 01.405-.74c.243-.178.547-.267.912-.267.195 0 .386.014.57.041.185.03.319.06.403.091v.811h-.215l-.036-.142a.641.641 0 00-.245-.393.74.74 0 00-.459-.144.736.736 0 00-.45.144.449.449 0 00-.194.382c0 .107.017.198.05.274a.526.526 0 00.171.202l1.109.824c.184.135.321.283.409.445.088.16.132.353.132.576zm-5.338 1.097h-2.034v-.205l.152-.011c.103 0 .187-.007.253-.021a.316.316 0 00.163-.087.236.236 0 00.064-.084.437.437 0 00.02-.16.853.853 0 000-.103v-2.61a.737.737 0 000-.095.27.27 0 00-.041-.152.202.202 0 00-.123-.084.78.78 0 00-.199-.02h-.245v-.203c.111 0 .211-.004.298-.014a3.38 3.38 0 00.346-.063c.144-.032.262-.062.356-.095a3.17 3.17 0 00.362-.154v3.49a.555.555 0 010 .101c0 .056.004.103.014.141a.22.22 0 00.072.107.33.33 0 00.143.073c.057.013.123.024.198.032h.202v.218h-.001zm-1.049-4.728a.459.459 0 01-.364-.149.518.518 0 01-.132-.353c0-.123.037-.225.11-.307.074-.081.183-.123.326-.123.156 0 .278.05.364.15a.513.513 0 01.132.352.438.438 0 01-.11.307c-.074.081-.183.123-.326.123zm-4.547 5.448a.656.656 0 00-.28-.466 1.342 1.342 0 00-.556-.215l-1.015-.173-.114.065c-.168.103-.29.203-.37.298a.886.886 0 00-.197.578c0 .278.123.514.368.706.244.193.531.289.856.289.347 0 .644-.075.891-.226.283-.177.424-.417.424-.724 0-.056-.003-.1-.006-.132h-.001zm-.56-3.397c0-.331-.059-.613-.179-.849-.143-.278-.349-.418-.616-.418-.243 0-.433.118-.573.352a1.452 1.452 0 00-.185.757c0 .04.001.075.003.108.002.03.005.06.01.082.032.282.115.523.251.721.155.227.346.34.573.34h.073a.61.61 0 00.525-.382c.079-.175.119-.412.119-.711h-.001zm1.466-1.38l-.203.354h-.853c.118.143.205.286.26.43.056.142.083.304.083.482 0 .386-.138.712-.416.977a1.608 1.608 0 01-1.002.441.727.727 0 01-.096.007h-.268l-.137-.016-.131.132a.27.27 0 00-.084.24c.011.064.052.114.119.15a.822.822 0 00.215.06l1.248.233c.255.048.457.123.608.227a.812.812 0 01.339.508c.032.146.048.278.048.394 0 .473-.207.852-.62 1.134-.37.252-.807.377-1.313.377-.501 0-.932-.121-1.295-.365-.405-.27-.608-.637-.608-1.099 0-.068.005-.126.011-.177a.183.183 0 01.057-.112.458.458 0 01.087-.064l.824-.466a.638.638 0 01-.162-.018.47.47 0 01-.143-.071.562.562 0 01-.176-.168.4.4 0 01-.063-.227v-.125l.782-.658-.119-.066a1.67 1.67 0 01-.61-.51 1.242 1.242 0 01-.209-.724c0-.39.149-.716.445-.981a1.54 1.54 0 011.06-.396c.103 0 .229.003.377.006.146.003.305.043.477.118l.747-.028c.142 0 .299-.02.469-.06l.192-.052.059.113h.001zm-7.39 1.955c0-.465-.115-.879-.346-1.241-.253-.39-.558-.585-.917-.585-.491 0-.852.22-1.084.662-.18.342-.269.777-.269 1.302 0 .45.114.849.342 1.2.25.385.568.578.95.578.429 0 .762-.191 1.001-.573.216-.346.323-.793.323-1.343zm.839-.002c0 .597-.208 1.11-.624 1.543-.416.43-.929.647-1.539.647a2.092 2.092 0 01-1.475-.573 1.937 1.937 0 01-.633-1.48c0-.608.201-1.128.604-1.558.417-.445.939-.667 1.564-.667.582 0 1.078.2 1.488.596.41.399.615.896.615 1.492zm-7.144 2.104h-2.034v-.203l.15-.018.24-.023a.338.338 0 00.175-.082.24.24 0 00.071-.116.674.674 0 00.016-.16.49.49 0 000-.078v-4.52l-.003-.115a.268.268 0 00-.055-.137.223.223 0 00-.131-.093.875.875 0 00-.218-.02h-.246v-.203c.136 0 .243-.003.324-.01a3.39 3.39 0 00.325-.043c.138-.024.248-.044.332-.061a4.97 4.97 0 00.425-.127v5.324a.48.48 0 010 .095c0 .055.004.103.014.143a.22.22 0 00.073.11.275.275 0 00.121.069c.043.012.117.024.219.036l.202.03v.203zm-9.667-3.48l-.362.252-.403-.197a.423.423 0 00-.185-.041.64.64 0 00-.267.074.383.383 0 00-.204.235c-.034.108-.05.251-.05.43v2.042c0 .094.003.165.009.21a.22.22 0 00.074.133.36.36 0 00.148.086.723.723 0 00.2.024l.39.03v.202h-2.226v-.213l.143-.02.24-.023a.373.373 0 00.18-.08.247.247 0 00.073-.117.627.627 0 00.016-.16v-2.663a.79.79 0 00-.009-.144.435.435 0 00-.054-.113c-.03-.047-.084-.076-.161-.086a1.62 1.62 0 00-.189-.014h-.24v-.21c.235 0 .465-.026.692-.079a2.535 2.535 0 00.714-.27v.755l.554-.569a.717.717 0 01.176-.136.384.384 0 01.182-.05.35.35 0 01.088.016.169.169 0 01.088.044c.021.02.044.054.071.102l.312.551zm-6.393 1.378c0-.465-.116-.879-.347-1.241-.252-.39-.558-.585-.917-.585-.491 0-.852.22-1.084.662-.18.342-.269.777-.269 1.302 0 .45.114.849.341 1.2.252.385.569.578.952.578.428 0 .761-.191 1-.573.216-.346.324-.793.324-1.343zm.838-.002c0 .597-.208 1.11-.624 1.543-.416.43-.929.647-1.538.647a2.09 2.09 0 01-1.475-.573 1.937 1.937 0 01-.633-1.48c0-.608.2-1.128.603-1.558.418-.445.939-.667 1.564-.667.582 0 1.078.2 1.489.596.41.399.614.896.614 1.492zm-6.586-3.499a.2.2 0 01-.035.09l-.119.178a.122.122 0 01-.071.048.121.121 0 01-.048 0 .307.307 0 00-.077-.036l-.482-.203a.43.43 0 00-.083-.03.501.501 0 00-.149-.023.315.315 0 00-.19.059.277.277 0 00-.11.153.803.803 0 00-.027.224v1.262h1.118l.018.179-.34.185h-.796v2.832c0 .082.005.151.014.203.012.05.04.098.087.142a.514.514 0 00.345.108l.367.03v.202h-2.202v-.213l.151-.02.242-.023a.342.342 0 00.181-.084.227.227 0 00.065-.083.434.434 0 00.021-.16.418.418 0 010-.101v-2.833h-.571v-.364h.571v-.705c0-.15.037-.309.112-.472.061-.127.158-.255.293-.381.095-.089.185-.157.267-.209l.435-.257c.065-.036.134-.065.21-.087a.682.682 0 01.19-.033c.087 0 .164.026.232.078l.317.26c.038.032.061.06.064.084zm-10.71 4.506c0 .35-.14.636-.42.854-.281.22-.622.329-1.019.329a3.34 3.34 0 01-.634-.06 1.492 1.492 0 01-.489-.168v-.913h.198l.018.143a.771.771 0 00.304.524c.172.13.371.194.599.194a.75.75 0 00.524-.194.62.62 0 00.212-.474v-.1a.674.674 0 00-.1-.365.988.988 0 00-.285-.291l-1.083-.774c-.258-.192-.387-.436-.387-.732v-.077a.981.981 0 01.405-.74c.243-.178.547-.267.912-.267.195 0 .386.014.57.041.185.03.319.06.403.091v.811h-.215l-.036-.142a.644.644 0 00-.244-.393.745.745 0 00-.46-.144.738.738 0 00-.45.144.451.451 0 00-.194.382c0 .107.017.198.05.274a.526.526 0 00.171.202l1.109.824c.184.135.321.283.409.445.088.16.132.353.132.576zm-5.262 1.097h-2.011v-.205l.149-.011c.18 0 .315-.044.402-.131a.206.206 0 00.057-.084.443.443 0 00.02-.156v-1.95c0-.358-.03-.608-.088-.751-.1-.235-.305-.38-.614-.435a1.813 1.813 0 00-.238-.018.98.98 0 00-.83.42c-.186.25-.28.555-.28.914v1.831c0 .057.005.102.017.139.01.036.032.07.068.107.08.076.197.114.348.114h.204v.217H95.97v-.206l.151-.01a1 1 0 00.245-.028.374.374 0 00.167-.083.235.235 0 00.074-.116.709.709 0 00.016-.16V38.48a.74.74 0 00-.01-.144.403.403 0 00-.05-.11.17.17 0 00-.123-.082 1.37 1.37 0 00-.23-.016h-.24v-.202c.219 0 .448-.029.691-.086.141-.03.261-.067.36-.104.1-.04.217-.095.354-.167v.701l.184-.16a2.12 2.12 0 01.655-.408 1.98 1.98 0 011.224-.067.87.87 0 01.586.483c.103.212.154.491.154.838v2.23c0 .063.005.114.015.153a.242.242 0 00.072.11c.038.036.094.06.171.072.078.011.138.02.181.023h.19v.217zm-14.577 0h-2.034v-.205l.151-.011c.104 0 .188-.007.254-.021a.319.319 0 00.163-.087.225.225 0 00.063-.084.424.424 0 00.021-.16 1.065 1.065 0 000-.103v-2.61a.92.92 0 000-.095c0-.06-.014-.11-.041-.152a.201.201 0 00-.123-.084.784.784 0 00-.2-.02h-.244v-.203c.111 0 .21-.004.297-.014.088-.01.204-.031.347-.063.144-.032.262-.062.356-.095.094-.03.214-.083.361-.154v3.49a.52.52 0 010 .101c0 .056.005.103.015.141a.224.224 0 00.072.107.324.324 0 00.143.073c.056.013.123.024.197.032h.203v.218zm-1.05-4.728a.456.456 0 01-.363-.149.517.517 0 01-.132-.353.44.44 0 01.11-.307c.074-.081.183-.123.326-.123.156 0 .277.05.364.15a.513.513 0 01.132.352.441.441 0 01-.11.307c-.074.081-.183.123-.326.123zm-3.66 4.462l-.95.367h-.107a.863.863 0 01-.235-.027 1.082 1.082 0 01-.229-.098.825.825 0 01-.383-.476c-.048-.152-.072-.37-.072-.657v-2.368H78.9v-.364h.644v-.861l.503-.451h.227v1.312h1.234v.22l-.328.144h-.906v2.306c0 .187.017.337.05.45.034.113.11.208.224.283a.648.648 0 00.365.114.98.98 0 00.21-.026c.074-.017.127-.026.158-.03l.18-.045.06.207zm-5.277-.014l-1.164.382a.845.845 0 01-.1-.148.947.947 0 01-.086-.402.323.323 0 010-.08l-.75.434a1.4 1.4 0 01-.69.196c-.163 0-.342-.034-.536-.102a.926.926 0 01-.538-.472c-.11-.222-.165-.5-.165-.834v-2.028a.362.362 0 00-.041-.194.203.203 0 00-.126-.084.884.884 0 00-.215-.021h-.262v-.202c.219 0 .452-.029.701-.085a2.889 2.889 0 00.696-.28v2.62c0 .355.03.606.09.754.1.243.304.388.614.436.072.011.138.018.202.018a.877.877 0 00.782-.424c.159-.246.238-.552.238-.914v-1.565c0-.06-.003-.106-.006-.14a.278.278 0 00-.054-.123.19.19 0 00-.14-.084 1.635 1.635 0 00-.206-.01h-.238v-.203c.159 0 .299-.01.419-.03.016-.002.097-.023.245-.056.147-.034.27-.07.368-.108a3.08 3.08 0 00.35-.17v3.336c0 .103.014.191.04.265.03.074.081.123.158.146a.278.278 0 00.09.018.415.415 0 00.105-.014l.08-.027.09-.029.05.224h-.001zm-7.461.28h-2.035v-.203l.15-.018.24-.023a.34.34 0 00.176-.081.245.245 0 00.07-.117.617.617 0 00.017-.16.307.307 0 000-.078v-4.52l-.003-.115a.258.258 0 00-.054-.136.225.225 0 00-.132-.093.87.87 0 00-.218-.021h-.246v-.202a3.311 3.311 0 00.648-.054c.14-.023.25-.044.333-.06a5.63 5.63 0 00.425-.128v5.324a.307.307 0 010 .095c0 .055.005.103.014.143a.21.21 0 00.073.11.28.28 0 00.121.069c.042.012.117.024.219.036l.202.03v.203zm-5.504-2.102a2.25 2.25 0 00-.348-1.241c-.252-.39-.557-.585-.915-.585-.493 0-.853.221-1.085.662-.18.342-.27.777-.27 1.302 0 .45.114.849.342 1.2.251.386.569.578.951.578.429 0 .761-.191 1-.573.217-.345.325-.793.325-1.343zm.838-.002c0 .597-.209 1.11-.624 1.543a2.06 2.06 0 01-1.539.647 2.09 2.09 0 01-1.475-.573c-.422-.394-.632-.887-.632-1.48 0-.608.2-1.128.603-1.557.418-.446.939-.668 1.564-.668.582 0 1.078.2 1.488.596.41.399.615.896.615 1.492zm-7.064 1.007c0 .351-.14.636-.42.854-.281.22-.621.33-1.019.33a3.3 3.3 0 01-.634-.06 1.489 1.489 0 01-.489-.169v-.913h.198l.018.143a.774.774 0 00.304.524.97.97 0 00.6.194.753.753 0 00.524-.194.62.62 0 00.212-.473v-.101a.682.682 0 00-.1-.365.998.998 0 00-.286-.291l-1.083-.774c-.258-.192-.387-.436-.387-.731v-.078a.983.983 0 01.405-.74c.243-.178.547-.267.912-.267.195 0 .386.014.57.042.185.028.32.058.403.09v.812h-.214l-.037-.143a.644.644 0 00-.244-.393.743.743 0 00-.46-.144c-.17 0-.32.048-.45.144a.45.45 0 00-.194.382c0 .107.017.198.05.274.034.075.09.142.172.202l1.108.824c.184.135.321.284.41.445.087.16.131.354.131.576zm35.473-1.005a2.25 2.25 0 00-.347-1.241c-.252-.39-.557-.585-.915-.585-.493 0-.854.221-1.085.662-.18.342-.27.777-.27 1.302 0 .45.114.849.342 1.2.251.386.568.578.951.578.428 0 .761-.191 1-.573.217-.345.324-.793.324-1.343zm.839-.002c0 .597-.209 1.11-.624 1.543a2.06 2.06 0 01-1.539.647 2.091 2.091 0 01-1.475-.573 1.937 1.937 0 01-.633-1.48c0-.608.201-1.128.603-1.557.419-.446.94-.668 1.565-.668.582 0 1.078.2 1.488.596.41.399.615.896.615 1.492z" fill="#1B1918"/><defs><linearGradient id="paint0_linear" x1="-398.266" y1="-1071.63" x2="-375.125" y2="-1083.42" gradientUnits="userSpaceOnUse"><stop stop-color="#005DA9"/><stop offset="1" stop-color="#fff"/></linearGradient><linearGradient id="paint1_linear" x1="-454.873" y1="-1099.61" x2="-433.124" y2="-1113.73" gradientUnits="userSpaceOnUse"><stop stop-color="#005DA9"/><stop offset="1" stop-color="#fff"/></linearGradient><linearGradient id="paint2_linear" x1="-381.106" y1="-1068.27" x2="-345.989" y2="-1085.4" gradientUnits="userSpaceOnUse"><stop stop-color="#005DA9"/><stop offset="1" stop-color="#fff"/></linearGradient></defs></svg>