<svg xmlns="http://www.w3.org/2000/svg" width="16" height="16"><path fill-rule="evenodd" d="M1.668 14.999H3.51c.275 0 .49.224.49.5a.5.5 0 01-.49.5H.49a.483.483 0 01-.345-.143.501.501 0 01-.145-.347v-3.02c0-.275.224-.49.5-.49a.5.5 0 01.5.49v1.763l4.78-4.78a.492.492 0 01.7.007.5.5 0 01.007.7L1.667 15zm12.662 0h-1.842a.492.492 0 00-.49.5c0 .268.22.5.49.5h3.02a.483.483 0 00.345-.143.501.501 0 00.145-.347v-3.02a.492.492 0 00-.5-.49.5.5 0 00-.5.49v1.763l-4.78-4.78a.492.492 0 00-.7.007.5.5 0 00-.007.7L14.33 15zM1.668 1H3.51C3.785 1 4 .776 4 .5a.5.5 0 00-.49-.5H.49a.483.483 0 00-.345.143A.501.501 0 000 .49v3.02c0 .275.224.49.5.49a.5.5 0 00.5-.49V1.747l4.78 4.78a.492.492 0 00.7-.007.5.5 0 00.007-.7L1.667 1zM14.25 1h-1.763a.492.492 0 01-.49-.5.5.5 0 01.49-.5h3.02c.135 0 .257.055.345.143a.501.501 0 01.145.347v3.02c0 .275-.224.49-.5.49a.5.5 0 01-.5-.49V1.668l-4.82 4.819a.492.492 0 01-.7-.007.5.5 0 01-.007-.7L14.251 1z"/></svg>