<svg xmlns="http://www.w3.org/2000/svg" width="63" height="63" fill="none"><path d="M31.5 24.99a6.51 6.51 0 100 13.02 6.51 6.51 0 000-13.02zm26.066-6.431a17.14 17.14 0 00-1.102-5.933 10.5 10.5 0 00-6.09-6.09 17.142 17.142 0 00-5.933-1.102C41.055 5.25 40.057 5.25 31.5 5.25c-8.558 0-9.555 0-12.941.184a17.142 17.142 0 00-5.933 1.102 10.5 10.5 0 00-6.09 6.09 17.142 17.142 0 00-1.102 5.933C5.25 21.945 5.25 22.942 5.25 31.5c0 8.557 0 9.555.184 12.941.028 2.034.4 4.05 1.102 5.959a10.343 10.343 0 002.389 3.675 10.21 10.21 0 003.701 2.389 17.14 17.14 0 005.933 1.102c3.386.184 4.383.184 12.941.184 8.557 0 9.555 0 12.941-.184a17.14 17.14 0 005.933-1.102 10.21 10.21 0 003.701-2.389 10.341 10.341 0 002.389-3.675 17.322 17.322 0 001.102-5.959c.184-3.386.184-4.384.184-12.941 0-8.558 0-9.555-.184-12.941zm-6.667 21a15.044 15.044 0 01-1.024 4.725 10.133 10.133 0 01-5.591 5.591c-1.524.56-3.128.87-4.752.919H23.468a15.043 15.043 0 01-4.752-.919 9.213 9.213 0 01-3.439-2.258 9.213 9.213 0 01-2.152-3.333 14.41 14.41 0 01-.893-4.752V23.468c.028-1.623.33-3.23.893-4.752a9.213 9.213 0 012.258-3.439 9.423 9.423 0 013.333-2.152 15.04 15.04 0 014.752-.919h16.064a15.04 15.04 0 014.752.919 9.214 9.214 0 013.438 2.258 9.213 9.213 0 012.153 3.333c.56 1.524.87 3.128.919 4.752V31.5c0 5.407.184 5.959.105 8.032v.027zm-4.2-19.53a6.248 6.248 0 00-3.701-3.701 10.5 10.5 0 00-3.623-.578h-15.75a10.5 10.5 0 00-3.622.683 6.248 6.248 0 00-3.702 3.57 11.206 11.206 0 00-.551 3.622v15.75c.026 1.237.257 2.46.683 3.623a6.247 6.247 0 003.7 3.7c1.12.413 2.3.643 3.492.683h15.75a10.5 10.5 0 003.623-.682 6.249 6.249 0 003.7-3.701 10.5 10.5 0 00.683-3.623v-15.75a9.907 9.907 0 00-.682-3.622v.026zM31.5 41.528A10.002 10.002 0 0121.499 31.5 10.028 10.028 0 1131.5 41.528zM42 23.44a2.362 2.362 0 010-4.698 2.362 2.362 0 010 4.698z" fill="#08FFC8" fill-opacity=".5"/></svg>