<svg xmlns="http://www.w3.org/2000/svg" width="32" height="26" fill="none"><path d="M31.719 4.381a4.376 4.376 0 00-8.141-2.238v.004a4.97 4.97 0 00-.106.187l-.017.033a3.699 3.699 0 00-.08.165c-.01.017-.017.034-.024.05-.023.05-.044.101-.065.153l-.025.063a5.09 5.09 0 00-.054.144l-.024.073a4.691 4.691 0 00-.066.22c-.013.046-.024.092-.035.137a3.666 3.666 0 00-.02.084c-.01.046-.018.093-.026.136l-.016.087c-.008.047-.014.096-.02.145l-.01.084c-.006.053-.01.106-.014.159 0 .024-.004.05-.005.074a4.46 4.46 0 00-.002.436v.044l.015.192.004.033a3.526 3.526 0 00.06.393c0 .015.006.03.009.045.012.058.026.117.041.175v.013c.016.061.033.12.051.18l.015.047a4.694 4.694 0 00.218.556l.023.046.073.143a4.398 4.398 0 002.034 1.911l.027.012c.121.055.245.104.371.148l.065.022.103.032c.03.01.061.018.093.027l.131.034.118.027.079.016.125.022.064.01c.062.01.124.018.186.025l.053.004c.05.005.1.009.15.011l.06.004c.068 0 .132.005.2.005.079 0 .157 0 .234-.007l.074-.005.159-.013.085-.011c.048-.006.097-.012.145-.02l.086-.016.136-.026.084-.02c.047-.01.093-.022.137-.035l.08-.022.14-.043.073-.025.144-.053.064-.026c.05-.02.101-.042.151-.065l.052-.023c.055-.026.11-.053.164-.081l.033-.017c.063-.034.126-.068.188-.106h.004a4.41 4.41 0 001.055-.865 4.362 4.362 0 001.094-2.894z" fill="#08FFC8" fill-opacity=".5"/><path d="M23.2 9.473l-7.216 5.612a1.094 1.094 0 01-1.343 0L4.797 7.43A1.094 1.094 0 116.14 5.702l9.173 7.134 6.44-5.01a6.553 6.553 0 01-.096-6.73H3.828A3.832 3.832 0 000 4.926V21.33a3.832 3.832 0 003.828 3.828h22.969a3.832 3.832 0 003.828-3.828V10.065a6.551 6.551 0 01-7.425-.592z" fill="#08FFC8" fill-opacity=".5"/></svg>