<svg xmlns="http://www.w3.org/2000/svg" width="63" height="63" fill="none"><path d="M5.26 57.75l3.55-13.041A26.13 26.13 0 015.25 31.5c0-14.498 11.752-26.25 26.25-26.25S57.75 17.002 57.75 31.5 45.998 57.75 31.5 57.75a26.13 26.13 0 01-13.204-3.557L5.261 57.75zm16.766-38.567a2.51 2.51 0 00-.974.263 3.394 3.394 0 00-.771.598c-.315.297-.494.554-.685.804a7.164 7.164 0 00-1.483 4.405c.005 1.286.34 2.538.866 3.709 1.073 2.367 2.84 4.874 5.174 7.197.561.56 1.11 1.121 1.7 1.644a24.802 24.802 0 0010.08 5.37l1.494.229c.486.026.971-.01 1.46-.034a5.223 5.223 0 002.186-.607 12.7 12.7 0 001.006-.577s.113-.074.328-.236c.354-.263.572-.45.866-.757.218-.225.407-.49.551-.792.205-.428.41-1.245.494-1.924.063-.52.044-.804.037-.98-.01-.28-.244-.572-.5-.695l-1.527-.685s-2.284-.995-3.678-1.63a1.308 1.308 0 00-.464-.108 1.266 1.266 0 00-.992.333v-.005c-.014 0-.19.15-2.087 2.45a.92.92 0 01-.966.34 3.712 3.712 0 01-.502-.173c-.325-.136-.438-.189-.661-.286l-.013-.005a15.777 15.777 0 01-4.122-2.625c-.33-.289-.637-.604-.952-.908a16.522 16.522 0 01-2.678-3.329l-.155-.25a2.423 2.423 0 01-.267-.537c-.1-.386.16-.696.16-.696s.637-.698.934-1.076c.247-.314.478-.641.69-.98.31-.498.407-1.01.245-1.406a218.745 218.745 0 00-2.279-5.358c-.155-.352-.614-.604-1.032-.654a11.539 11.539 0 00-.425-.042 8.89 8.89 0 00-1.058.01v.003z" fill="#08FFC8" fill-opacity=".5"/></svg>